# xmcd CD database file
#
# Track frame offsets:
#	150
#	15903
#	34505
#	51064
#	65213
#	78687
#	96846
#	112139
#	125088
#
# Disc length: 1931 seconds
#
# Revision: 0
# Processed by: cddbd v1.5.2PL0 Copyright (c) Steve Scherf et al.
# Submitted via: CDex 1.70beta2
#
DISCID=78078909
DTITLE=The Bayou Brothers - Green River Blues
DYEAR=2009
DGENRE=Blues
TTITLE0=Green River
TTITLE1=Drop Down Mama
TTITLE2=The Exercise Yard
TTITLE3=Wayfaring Stranger
TTITLE4=Everything Tastes Better When Its Fried
TTITLE5=Lord Im Going To Heaven
TTITLE6=Ramblin' Man
TTITLE7=Takes A Lot To Laugh, Takes A Train To Cry
TTITLE8=Like A Bird
EXTD=YEAR: 2009
EXTT0=
EXTT1=
EXTT2=
EXTT3=
EXTT4=
EXTT5=
EXTT6=
EXTT7=
EXTT8=
PLAYORDER=
